<?xml version="1.0" encoding="UTF-8" standalone="no"?>
<!DOCTYPE svg PUBLIC "-//W3C//DTD SVG 1.1//EN" "http://www.w3.org/Graphics/SVG/1.1/DTD/svg11.dtd">
<svg width="100%" height="100%" viewBox="0 0 92 92" version="1.1" xmlns="http://www.w3.org/2000/svg" xmlns:xlink="http://www.w3.org/1999/xlink" xml:space="preserve" xmlns:serif="http://www.serif.com/" style="fill-rule:evenodd;clip-rule:evenodd;stroke-linejoin:round;stroke-miterlimit:2;">
    <g transform="matrix(1,0,0,1,-20.8846,-929.121)">
        <g transform="matrix(1.10744,0,0,1.10744,-9.03224,792.524)">
            <g transform="matrix(0.874786,0,-1.63208e-16,0.874786,-196.447,-117.818)">
                <circle cx="302.581" cy="322.816" r="47.134" style="fill:rgb(13,73,209);"/>
            </g>
        </g>
        <g transform="matrix(1.10744,0,0,1.10744,-9.03224,792.524)">
            <g transform="matrix(0.226411,0.844978,-0.844978,0.226411,272.511,-164.187)">
                <circle cx="302.581" cy="322.816" r="41.199" style="fill:rgb(4,99,230);"/>
            </g>
        </g>
        <g transform="matrix(1.10744,0,0,1.10744,-9.03224,792.524)">
            <g transform="matrix(0.111238,0.415146,-0.415146,0.111238,243.057,-1859.19)">
                <path d="M4496.24,1563.33C4507.82,1576.09 4514.87,1593.02 4514.87,1611.59C4514.87,1651.25 4482.68,1683.45 4443.02,1683.45C4424.45,1683.45 4407.52,1676.39 4394.75,1664.81C4422.3,1671.56 4452.61,1664.18 4474.11,1642.68C4495.61,1621.18 4502.98,1590.88 4496.24,1563.33Z" style="fill:rgb(13,73,209);"/>
            </g>
        </g>
        <g transform="matrix(1.10744,0,0,1.10744,-9.03224,792.524)">
            <g transform="matrix(0.429878,0,-8.02014e-17,0.204107,-61.8254,75.0107)">
                <circle cx="302.581" cy="322.816" r="35.304" style="fill:rgb(96,157,239);"/>
            </g>
        </g>
    </g>
</svg>
