<?xml version="1.0" encoding="UTF-8" standalone="no"?>
<!DOCTYPE svg PUBLIC "-//W3C//DTD SVG 1.1//EN" "http://www.w3.org/Graphics/SVG/1.1/DTD/svg11.dtd">
<svg width="100%" height="100%" viewBox="0 0 92 92" version="1.1" xmlns="http://www.w3.org/2000/svg" xmlns:xlink="http://www.w3.org/1999/xlink" xml:space="preserve" xmlns:serif="http://www.serif.com/" style="fill-rule:evenodd;clip-rule:evenodd;stroke-linejoin:round;stroke-miterlimit:2;">
    <g transform="matrix(1,0,0,1,-247.791,-702.229)">
        <g transform="matrix(1.10744,0,0,1.10744,-9.03224,565.632)">
            <g transform="matrix(0.874786,0,-1.63208e-16,0.874786,8.44548,-117.818)">
                <circle cx="302.581" cy="322.816" r="47.134" style="fill:rgb(8,35,31);"/>
            </g>
        </g>
        <g transform="matrix(1.10744,0,0,1.10744,-9.03224,565.632)">
            <g transform="matrix(0.844978,0.226411,-0.226411,0.844978,90.5539,-176.703)">
                <circle cx="302.581" cy="322.816" r="41.199" style="fill:rgb(24,49,46);"/>
            </g>
        </g>
        <g transform="matrix(1.10744,0,0,1.10744,-9.03224,565.632)">
            <g transform="matrix(0.415146,0.111238,-0.111238,0.415146,-1392.09,-998.698)">
                <path d="M4496.24,1563.33C4507.82,1576.09 4514.87,1593.02 4514.87,1611.59C4514.87,1651.25 4482.68,1683.45 4443.02,1683.45C4424.45,1683.45 4407.52,1676.39 4394.75,1664.81C4422.3,1671.56 4452.61,1664.18 4474.11,1642.68C4495.61,1621.18 4502.98,1590.88 4496.24,1563.33Z" style="fill:rgb(8,35,31);"/>
            </g>
        </g>
        <g transform="matrix(1.10744,0,0,1.10744,-9.03224,565.632)">
            <g transform="matrix(0.429878,0,-8.02014e-17,0.204107,143.067,75.0107)">
                <circle cx="302.581" cy="322.816" r="35.304" style="fill:rgb(47,69,66);"/>
            </g>
        </g>
        <g transform="matrix(1.10744,0,0,1.10744,-9.03224,565.632)">
            <g transform="matrix(0.21213,0,0,0.21213,241.879,162.207)">
                <path d="M112.373,0L66.361,0L66.361,-63.613L112.373,-63.613L112.373,-51.309L82.681,-51.309L82.681,-40.33L110.237,-40.33L110.237,-28.026L82.681,-28.026L82.681,-12.304L112.373,-12.304L112.373,0Z" style="fill:white;fill-rule:nonzero;"/>
                <path d="M173.465,0L158.043,0L158.043,-23.796C158.043,-25.733 157.943,-27.663 157.744,-29.585C157.544,-31.508 157.203,-32.924 156.718,-33.836C156.149,-34.89 155.316,-35.659 154.219,-36.143C153.123,-36.627 151.592,-36.869 149.626,-36.869C148.231,-36.869 146.814,-36.641 145.376,-36.186C143.937,-35.73 142.378,-35.004 140.698,-34.007L140.698,0L125.275,0L125.275,-47.977L140.698,-47.977L140.698,-42.679C143.428,-44.815 146.052,-46.453 148.569,-47.592C151.087,-48.732 153.881,-49.301 156.953,-49.301C162.13,-49.301 166.177,-47.792 169.092,-44.773C172.008,-41.754 173.465,-37.239 173.465,-31.23L173.465,0Z" style="fill:white;fill-rule:nonzero;"/>
                <path d="M234.259,0L218.836,0L218.836,-4.998C216.191,-2.834 213.716,-1.239 211.412,-0.214C209.108,0.812 206.448,1.324 203.432,1.324C197.601,1.324 192.936,-0.926 189.437,-5.426C185.938,-9.926 184.189,-15.992 184.189,-23.625C184.189,-27.698 184.779,-31.308 185.959,-34.455C187.14,-37.603 188.754,-40.301 190.803,-42.551C192.737,-44.687 195.083,-46.346 197.843,-47.528C200.602,-48.71 203.361,-49.301 206.12,-49.301C208.994,-49.301 211.348,-48.995 213.183,-48.383C215.017,-47.77 216.902,-46.994 218.836,-46.054L218.836,-66.476L234.259,-66.476L234.259,0ZM218.836,-13.206L218.836,-36.782C217.757,-37.238 216.62,-37.566 215.427,-37.766C214.233,-37.966 213.139,-38.065 212.144,-38.065C208.109,-38.065 205.082,-36.803 203.065,-34.279C201.047,-31.754 200.039,-28.253 200.039,-23.774C200.039,-19.068 200.848,-15.652 202.468,-13.527C204.088,-11.401 206.688,-10.339 210.268,-10.339C211.661,-10.339 213.139,-10.603 214.702,-11.13C216.265,-11.658 217.643,-12.35 218.836,-13.206Z" style="fill:white;fill-rule:nonzero;"/>
                <path d="M83.813,87.072C82.161,87.498 80.41,87.832 78.558,88.073C76.707,88.314 74.443,88.435 71.765,88.435C65.784,88.435 61.334,87.224 58.415,84.803C55.495,82.382 54.036,78.238 54.036,72.371L54.036,49.942L47.713,49.942L47.713,39.518L54.036,39.518L54.036,25.804L69.458,25.804L69.458,39.518L83.813,39.518L83.813,49.942L69.458,49.942L69.458,66.972C69.458,68.655 69.473,70.124 69.501,71.379C69.53,72.634 69.757,73.76 70.183,74.759C70.58,75.757 71.283,76.549 72.291,77.133C73.299,77.718 74.769,78.011 76.7,78.011C77.495,78.011 78.538,77.84 79.83,77.498C81.122,77.156 82.024,76.843 82.535,76.558L83.813,76.558L83.813,87.072Z" style="fill:white;fill-rule:nonzero;"/>
                <path d="M140.804,87.495L125.382,87.495L125.382,82.197C122.537,84.362 119.934,86.007 117.574,87.132C115.213,88.257 112.397,88.819 109.126,88.819C103.835,88.819 99.76,87.295 96.902,84.248C94.043,81.2 92.614,76.7 92.614,70.748L92.614,39.518L108.037,39.518L108.037,63.314C108.037,65.735 108.115,67.75 108.271,69.359C108.428,70.969 108.791,72.3 109.361,73.354C109.902,74.408 110.721,75.177 111.817,75.661C112.914,76.145 114.445,76.387 116.41,76.387C117.72,76.387 119.173,76.145 120.768,75.661C122.363,75.177 123.901,74.465 125.382,73.525L125.382,39.518L140.804,39.518L140.804,87.495Z" style="fill:white;fill-rule:nonzero;"/>
                <path d="M190.106,54.172L188.742,54.172C188.088,53.944 187.037,53.773 185.587,53.659C184.138,53.545 182.93,53.488 181.964,53.488C179.776,53.488 177.843,53.63 176.166,53.915C174.489,54.2 172.685,54.684 170.753,55.368L170.753,87.495L155.33,87.495L155.33,39.518L170.753,39.518L170.753,46.567C174.134,43.662 177.076,41.732 179.576,40.778C182.077,39.824 184.379,39.347 186.482,39.347C187.022,39.347 187.633,39.361 188.315,39.39C188.998,39.418 189.594,39.461 190.106,39.518L190.106,54.172Z" style="fill:white;fill-rule:nonzero;"/>
                <path d="M247.012,87.495L231.589,87.495L231.589,63.699C231.589,61.762 231.489,59.832 231.29,57.91C231.09,55.987 230.749,54.57 230.264,53.659C229.695,52.605 228.862,51.836 227.765,51.352C226.669,50.868 225.138,50.626 223.173,50.626C221.777,50.626 220.36,50.854 218.922,51.309C217.483,51.765 215.924,52.491 214.244,53.488L214.244,87.495L198.821,87.495L198.821,39.518L214.244,39.518L214.244,44.815C216.974,42.679 219.598,41.042 222.116,39.902C224.633,38.763 227.427,38.194 230.499,38.194C235.676,38.194 239.723,39.703 242.638,42.722C245.554,45.741 247.012,50.255 247.012,56.265L247.012,87.495Z" style="fill:white;fill-rule:nonzero;"/>
            </g>
        </g>
    </g>
</svg>
