<?xml version="1.0" encoding="UTF-8" standalone="no"?>
<!DOCTYPE svg PUBLIC "-//W3C//DTD SVG 1.1//EN" "http://www.w3.org/Graphics/SVG/1.1/DTD/svg11.dtd">
<svg width="100%" height="100%" viewBox="0 0 150 150" version="1.1" xmlns="http://www.w3.org/2000/svg" xmlnsXlink="http://www.w3.org/1999/xlink" xmlSpace="preserve" xmlnsSerif="http://www.serif.com/" style="fill-rule:evenodd;clip-rule:evenodd;stroke-linejoin:round;stroke-miterlimit:2;">
    <g transform="matrix(1.59121,0,-2.9687e-16,1.59121,-406.472,-438.669)">
        <circle cx="302.581" cy="322.816" r="47.134" style="fill:rgb(204,204,204);"/>
    </g>
    <g transform="matrix(1.59121,0,-2.9687e-16,1.59121,-406.472,-438.669)">
        <circle cx="302.581" cy="322.816" r="41.199" style="fill:rgb(231,231,231);"/>
    </g>
    <g transform="matrix(0.781776,0,0,0.781776,-3398.45,-1184.9)">
        <path d="M4496.24,1563.33C4507.82,1576.09 4514.87,1593.02 4514.87,1611.59C4514.87,1651.25 4482.68,1683.45 4443.02,1683.45C4424.45,1683.45 4407.52,1676.39 4394.75,1664.81C4422.3,1671.56 4452.61,1664.18 4474.11,1642.68C4495.61,1621.18 4502.98,1590.88 4496.24,1563.33Z" style="fill:rgb(204,204,204);"/>
    </g>
    <g transform="matrix(0.781936,0,-1.45884e-16,0.371265,-161.599,-87.9193)">
        <circle cx="302.581" cy="322.816" r="35.304" style="fill:rgb(248,248,248);"/>
    </g>
    <g transform="matrix(0.418471,0,0,0.418471,-180.204,-66.8606)">
        <text x="521.623px" y="329.705px" style="font-family:'Lato-Black', 'Lato', sans-serif;font-weight:900;font-size:96px;fill:rgb(78,78,78);">Add</text>
        <text x="525.943px" y="419.377px" style="font-family:'Lato-Black', 'Lato', sans-serif;font-weight:900;font-size:96px;fill:rgb(78,78,78);">foul</text>
    </g>
</svg>
