<?xml version="1.0" encoding="UTF-8" standalone="no"?>
<!DOCTYPE svg PUBLIC "-//W3C//DTD SVG 1.1//EN" "http://www.w3.org/Graphics/SVG/1.1/DTD/svg11.dtd">
<svg width="100%" height="100%" viewBox="0 0 92 92" version="1.1" xmlns="http://www.w3.org/2000/svg" xmlns:xlink="http://www.w3.org/1999/xlink" xml:space="preserve" xmlns:serif="http://www.serif.com/" style="fill-rule:evenodd;clip-rule:evenodd;stroke-linejoin:round;stroke-miterlimit:2;">
    <g transform="matrix(1,0,0,1,-134.338,-702.229)">
        <g transform="matrix(1.10744,0,0,1.10744,-9.03224,565.632)">
            <g transform="matrix(0.874786,0,-1.63208e-16,0.874786,-94.0008,-117.818)">
                <circle cx="302.581" cy="322.816" r="47.134" style="fill:rgb(204,204,204);"/>
            </g>
        </g>
        <g transform="matrix(1.10744,0,0,1.10744,-9.03224,565.632)">
            <g transform="matrix(0.618567,0.618567,-0.618567,0.618567,183.21,-222.273)">
                <circle cx="302.581" cy="322.816" r="41.199" style="fill:rgb(231,231,231);"/>
            </g>
        </g>
        <g transform="matrix(1.10744,0,0,1.10744,-9.03224,565.632)">
            <g transform="matrix(0.303908,0.303908,-0.303908,0.303908,-689.802,-1675.46)">
                <path d="M4496.24,1563.33C4507.82,1576.09 4514.87,1593.02 4514.87,1611.59C4514.87,1651.25 4482.68,1683.45 4443.02,1683.45C4424.45,1683.45 4407.52,1676.39 4394.75,1664.81C4422.3,1671.56 4452.61,1664.18 4474.11,1642.68C4495.61,1621.18 4502.98,1590.88 4496.24,1563.33Z" style="fill:rgb(204,204,204);"/>
            </g>
        </g>
        <g transform="matrix(1.10744,0,0,1.10744,-9.03224,565.632)">
            <g transform="matrix(0.429878,0,-8.02014e-17,0.204107,40.6209,75.0107)">
                <circle cx="302.581" cy="322.816" r="35.304" style="fill:rgb(248,248,248);"/>
            </g>
        </g>
        <g transform="matrix(1.10744,0,0,1.10744,-9.03224,565.632)">
            <g transform="matrix(0.42979,0,0,0.42979,-1586.1,-494.235)">
                <path d="M4088.18,1494.03L4059.84,1465.68L4048.08,1477.44L4076.42,1505.79L4048.69,1533.52L4059.22,1544.05L4086.95,1516.32L4115.3,1544.67L4127.06,1532.9L4098.72,1504.56L4126.45,1476.83L4115.91,1466.3L4088.18,1494.03Z" style="fill:rgb(197,0,47);"/>
            </g>
        </g>
        <g transform="matrix(1.10744,0,0,1.10744,-9.03224,565.632)">
            <g transform="matrix(0.174743,0,-4.06565e-33,0.168849,142.996,187.391)">
                <path d="M58.16,-55.569L26.466,-55.569L26.466,-42.753L55.847,-42.753L55.847,-29.427L26.466,-29.427L26.466,0L8.791,0L8.791,-68.895L58.16,-68.895L58.16,-55.569Z" style="fill:rgb(24,49,46);fill-rule:nonzero;"/>
                <path d="M137.42,-34.424C137.42,-23.443 134.273,-14.721 127.981,-8.259C121.688,-1.797 112.99,1.434 101.885,1.434C90.811,1.434 82.128,-1.797 75.835,-8.259C69.543,-14.721 66.396,-23.443 66.396,-34.424C66.396,-45.498 69.543,-54.251 75.835,-60.682C82.128,-67.114 90.811,-70.329 101.885,-70.329C112.928,-70.329 121.611,-67.114 127.934,-60.682C134.258,-54.251 137.42,-45.498 137.42,-34.424ZM113.869,-16.981C115.596,-19.078 116.876,-21.554 117.709,-24.407C118.542,-27.26 118.958,-30.615 118.958,-34.471C118.958,-38.604 118.48,-42.12 117.524,-45.02C116.568,-47.92 115.318,-50.264 113.776,-52.053C112.203,-53.904 110.391,-55.245 108.339,-56.078C106.288,-56.911 104.152,-57.328 101.931,-57.328C99.679,-57.328 97.559,-56.927 95.569,-56.125C93.58,-55.323 91.752,-53.996 90.086,-52.145C88.544,-50.418 87.287,-48.035 86.315,-44.997C85.344,-41.958 84.858,-38.434 84.858,-34.424C84.858,-30.322 85.328,-26.828 86.269,-23.944C87.21,-21.06 88.451,-18.708 89.994,-16.888C91.536,-15.068 93.34,-13.727 95.407,-12.863C97.474,-11.999 99.649,-11.567 101.931,-11.567C104.214,-11.567 106.388,-12.007 108.455,-12.886C110.522,-13.765 112.326,-15.13 113.869,-16.981Z" style="fill:rgb(24,49,46);fill-rule:nonzero;"/>
                <path d="M211.312,-24.939C211.312,-16.426 208.721,-9.902 203.538,-5.367C198.356,-0.833 190.722,1.434 180.635,1.434C170.548,1.434 162.922,-0.833 157.755,-5.367C152.588,-9.902 150.005,-16.41 150.005,-24.893L150.005,-68.895L167.865,-68.895L167.865,-25.911C167.865,-21.13 168.867,-17.567 170.872,-15.223C172.877,-12.878 176.132,-11.706 180.635,-11.706C185.077,-11.706 188.324,-12.832 190.375,-15.084C192.426,-17.336 193.452,-20.945 193.452,-25.911L193.452,-68.895L211.312,-68.895L211.312,-24.939Z" style="fill:rgb(24,49,46);fill-rule:nonzero;"/>
                <path d="M277.615,0L227.922,0L227.922,-68.895L245.69,-68.895L245.69,-13.326L277.615,-13.326L277.615,0Z" style="fill:rgb(24,49,46);fill-rule:nonzero;"/>
                <path d="M308.246,-68.895L306.117,-19.85L291.034,-19.85L288.905,-68.895L308.246,-68.895ZM307.922,0L289.229,0L289.229,-12.215L307.922,-12.215L307.922,0Z" style="fill:rgb(24,49,46);fill-rule:nonzero;"/>
            </g>
        </g>
    </g>
</svg>
