<?xml version="1.0" encoding="UTF-8" standalone="no"?>
<!DOCTYPE svg PUBLIC "-//W3C//DTD SVG 1.1//EN" "http://www.w3.org/Graphics/SVG/1.1/DTD/svg11.dtd">
<svg width="100%" height="100%" viewBox="0 0 615 86" version="1.1" xmlns="http://www.w3.org/2000/svg" xmlns:xlink="http://www.w3.org/1999/xlink" xml:space="preserve" xmlns:serif="http://www.serif.com/" style="fill-rule:evenodd;clip-rule:evenodd;stroke-linejoin:round;stroke-miterlimit:2;">
    <g transform="matrix(1,0,0,1,-157.257,-80.8319)">
        <g transform="matrix(1.1511,0,0,0.975619,137.259,485.554)">
            <g transform="matrix(0.252462,0,0,0.297872,-58.7701,-909.364)">
                <text x="728.109px" y="1940.79px" style="font-family:'NotoSans-ExtraBoldItalic', 'Noto Sans', sans-serif;font-weight:800;font-style:italic;font-size:372.597px;fill:white;">TRACKEM</text>
            </g>
            <g transform="matrix(1,0,0,1,52.949,1.13687e-13)">
                <g transform="matrix(0.789404,0,-1.47278e-16,0.931391,-237.227,-671.604)">
                    <circle cx="302.581" cy="322.816" r="47.134" style="fill:rgb(161,0,32);"/>
                </g>
                <g transform="matrix(0.204313,0.899655,-0.762506,0.241062,185.959,-720.973)">
                    <circle cx="302.581" cy="322.816" r="41.199" style="fill:rgb(197,0,47);"/>
                </g>
                <g transform="matrix(0.100381,0.442009,-0.374626,0.118436,159.38,-2525.66)">
                    <path d="M4496.24,1563.33C4507.82,1576.09 4514.87,1593.02 4514.87,1611.59C4514.87,1651.25 4482.68,1683.45 4443.02,1683.45C4424.45,1683.45 4407.52,1676.39 4394.75,1664.81C4422.3,1671.56 4452.61,1664.18 4474.11,1642.68C4495.61,1621.18 4502.98,1590.88 4496.24,1563.33Z" style="fill:rgb(161,0,32);"/>
                </g>
                <g transform="matrix(0.387921,0,-7.23735e-17,0.217314,-115.745,-466.298)">
                    <circle cx="302.581" cy="322.816" r="35.304" style="fill:rgb(219,97,126);"/>
                </g>
            </g>
        </g>
    </g>
</svg>
