<svg width="116" height="116" viewBox="0 0 116 116" fill="none" xmlns="http://www.w3.org/2000/svg">
<path d="M57.9994 115.437C89.721 115.437 115.436 89.7214 115.436 57.9998C115.436 26.2783 89.721 0.562927 57.9994 0.562927C26.2779 0.562927 0.562531 26.2783 0.562531 57.9998C0.562531 89.7214 26.2779 115.437 57.9994 115.437Z" fill="#CCCCCC"/>
<path d="M58 108.205C85.7272 108.205 108.205 85.7272 108.205 58C108.205 30.2728 85.7272 7.79542 58 7.79542C30.2728 7.79541 7.7954 30.2728 7.7954 58C7.79539 85.7272 30.2727 108.205 58 108.205Z" fill="#E7E7E7"/>
<path fill-rule="evenodd" clip-rule="evenodd" d="M100.96 60.1101C100.46 70.4143 96.2777 80.5662 88.4162 88.4277C71.6262 105.218 44.3668 105.222 27.5768 88.4319C19.7153 80.5704 15.5368 70.4143 15.033 60.1058C23.8386 74.6266 39.7945 84.3339 57.9985 84.3339C76.2024 84.3339 92.1501 74.6267 100.96 60.1101Z" fill="#CCCCCC"/>
<path d="M58.0007 35.0549C69.6765 35.0549 79.1416 30.5609 79.1416 25.0172C79.1416 19.4735 69.6765 14.9794 58.0007 14.9794C46.3249 14.9794 36.8598 19.4735 36.8598 25.0172C36.8598 30.5609 46.3249 35.0549 58.0007 35.0549Z" fill="#F8F8F8"/>
<path d="M42.6768 48.9726C42.6768 50.5481 42.0072 51.83 40.668 52.8183C39.3359 53.7994 37.5241 54.29 35.2324 54.29C33.9076 54.29 32.751 54.1754 31.7627 53.9463C30.7816 53.7099 29.8613 53.4127 29.002 53.0547V49.2197H29.4531C30.3053 49.9 31.2578 50.4228 32.3105 50.7881C33.3704 51.1533 34.3874 51.3359 35.3613 51.3359C35.612 51.3359 35.9414 51.3144 36.3496 51.2715C36.7578 51.2285 37.0908 51.1569 37.3486 51.0566C37.6637 50.9277 37.9215 50.7666 38.1221 50.5732C38.3298 50.3799 38.4336 50.0934 38.4336 49.7138C38.4336 49.3629 38.2832 49.0621 37.9824 48.8115C37.6888 48.5537 37.2555 48.3567 36.6826 48.2207C36.0811 48.0774 35.4437 47.945 34.7705 47.8232C34.1045 47.6943 33.4779 47.5332 32.8906 47.3398C31.5443 46.903 30.5739 46.3121 29.9795 45.5674C29.3923 44.8154 29.0986 43.8844 29.0986 42.7744C29.0986 41.2848 29.7646 40.0709 31.0967 39.1328C32.4359 38.1875 34.1546 37.7148 36.2529 37.7148C37.3057 37.7148 38.3441 37.8187 39.3682 38.0263C40.3994 38.2269 41.291 38.4811 42.043 38.789V42.4736H41.6025C40.958 41.958 40.1667 41.5283 39.2285 41.1845C38.2975 40.8336 37.3451 40.6582 36.3711 40.6582C36.0273 40.6582 35.6836 40.6832 35.3398 40.7334C35.0033 40.7763 34.6774 40.8623 34.3623 40.9912C34.083 41.0986 33.8431 41.2633 33.6426 41.4853C33.4421 41.7002 33.3418 41.9472 33.3418 42.2265C33.3418 42.6491 33.5029 42.9749 33.8252 43.2041C34.1475 43.4261 34.7562 43.6302 35.6514 43.8164C36.2386 43.9381 36.8008 44.0563 37.3379 44.1709C37.8822 44.2855 38.4658 44.443 39.0889 44.6435C40.3135 45.0446 41.2158 45.5924 41.7959 46.2871C42.3831 46.9746 42.6768 47.8698 42.6768 48.9726ZM53.0107 53.8925C52.5954 54 52.1549 54.0823 51.6895 54.1396C51.224 54.2041 50.6546 54.2363 49.9814 54.2363C48.4775 54.2363 47.3568 53.9319 46.6191 53.3232C45.8887 52.7145 45.5234 51.6725 45.5234 50.1972V44.5576H43.9336V41.9365H45.5234V38.4883H49.3906V41.9365H53.0107V44.5576H49.3906V48.833C49.3906 49.2555 49.3942 49.6243 49.4014 49.9394C49.4085 50.2545 49.4658 50.5374 49.5732 50.7881C49.6735 51.0387 49.849 51.2392 50.0996 51.3896C50.3574 51.5328 50.7298 51.6045 51.2168 51.6045C51.4173 51.6045 51.6787 51.5615 52.001 51.4756C52.3304 51.3896 52.5596 51.3108 52.6885 51.2392H53.0107V53.8925ZM62.6357 50.8525V48.3388C62.113 48.3818 61.5472 48.4427 60.9385 48.5215C60.3298 48.5931 59.8678 48.679 59.5527 48.7793C59.166 48.901 58.8688 49.08 58.6611 49.3164C58.4606 49.5455 58.3604 49.8499 58.3604 50.2295C58.3604 50.4801 58.3818 50.6842 58.4248 50.8418C58.4678 50.9993 58.5752 51.1497 58.7471 51.2929C58.9118 51.4362 59.1087 51.5436 59.3379 51.6152C59.5671 51.6797 59.9251 51.7119 60.4121 51.7119C60.7988 51.7119 61.1891 51.6331 61.583 51.4756C61.984 51.318 62.335 51.1103 62.6357 50.8525ZM62.6357 52.7216C62.4281 52.8792 62.1702 53.069 61.8623 53.291C61.5544 53.513 61.2643 53.6884 60.9922 53.8174C60.6126 53.9892 60.2188 54.1146 59.8105 54.1933C59.4023 54.2793 58.9548 54.3222 58.4678 54.3222C57.3219 54.3222 56.3623 53.9677 55.5889 53.2588C54.8154 52.5498 54.4287 51.6438 54.4287 50.541C54.4287 49.6601 54.6257 48.9404 55.0195 48.3818C55.4134 47.8232 55.972 47.3828 56.6953 47.0605C57.4115 46.7383 58.2995 46.5091 59.3594 46.373C60.4193 46.2369 61.5186 46.1367 62.6572 46.0722V46.0078C62.6572 45.3418 62.3851 44.8834 61.8408 44.6328C61.2965 44.375 60.4945 44.2461 59.4346 44.2461C58.7972 44.2461 58.1169 44.3606 57.3936 44.5898C56.6702 44.8118 56.151 44.9837 55.8359 45.1054H55.4814V42.1943C55.8896 42.0869 56.5521 41.9616 57.4688 41.8183C58.3926 41.6679 59.3164 41.5927 60.2402 41.5927C62.4388 41.5927 64.0251 41.9329 64.999 42.6133C65.9801 43.2864 66.4707 44.3463 66.4707 45.7929V54H62.6357V52.7216ZM78.7705 45.6211H78.4268C78.262 45.5638 77.9971 45.5208 77.6318 45.4922C77.2666 45.4635 76.9622 45.4492 76.7188 45.4492C76.1673 45.4492 75.6803 45.485 75.2578 45.5566C74.8353 45.6282 74.3805 45.75 73.8936 45.9218V54H70.0264V41.9365H73.8936V43.709C74.7458 42.9785 75.487 42.4951 76.1172 42.2588C76.7474 42.0153 77.3275 41.8935 77.8574 41.8935C77.9935 41.8935 78.1475 41.8971 78.3193 41.9043C78.4912 41.9114 78.6416 41.9222 78.7705 41.9365V45.6211ZM88.6748 53.8925C88.2594 54 87.819 54.0823 87.3535 54.1396C86.888 54.2041 86.3187 54.2363 85.6455 54.2363C84.1416 54.2363 83.0208 53.9319 82.2832 53.3232C81.5527 52.7145 81.1875 51.6725 81.1875 50.1972V44.5576H79.5977V41.9365H81.1875V38.4883H85.0547V41.9365H88.6748V44.5576H85.0547V48.833C85.0547 49.2555 85.0583 49.6243 85.0654 49.9394C85.0726 50.2545 85.1299 50.5374 85.2373 50.7881C85.3376 51.0387 85.513 51.2392 85.7637 51.3896C86.0215 51.5328 86.3939 51.6045 86.8809 51.6045C87.0814 51.6045 87.3428 51.5615 87.665 51.4756C87.9945 51.3896 88.2236 51.3108 88.3525 51.2392H88.6748V53.8925ZM33.793 72.4492V81H29.9043V74.9736C29.9043 74.3864 29.89 73.8886 29.8613 73.4804C29.8327 73.0651 29.7539 72.7285 29.625 72.4707C29.4961 72.2129 29.2992 72.0267 29.0342 71.9121C28.7764 71.7903 28.4111 71.7295 27.9385 71.7295C27.5589 71.7295 27.1901 71.8082 26.832 71.9658C26.474 72.1162 26.1517 72.2773 25.8652 72.4492V81H21.998V68.9365H25.8652V70.2685C26.5312 69.7457 27.1686 69.3375 27.7773 69.0439C28.3861 68.7503 29.0592 68.6035 29.7969 68.6035C30.5918 68.6035 31.2936 68.7825 31.9023 69.1406C32.5111 69.4915 32.9873 70.0107 33.3311 70.6982C34.1045 70.0465 34.8564 69.5345 35.5869 69.1621C36.3174 68.7897 37.0335 68.6035 37.7354 68.6035C39.0387 68.6035 40.027 68.9938 40.7002 69.7744C41.3805 70.555 41.7207 71.6793 41.7207 73.1474V81H37.832V74.9736C37.832 74.3792 37.8177 73.8779 37.7891 73.4697C37.7676 73.0615 37.6924 72.7285 37.5635 72.4707C37.4417 72.2129 37.2484 72.0267 36.9834 71.9121C36.7184 71.7903 36.346 71.7295 35.8662 71.7295C35.5439 71.7295 35.2288 71.7868 34.9209 71.9013C34.613 72.0088 34.237 72.1914 33.793 72.4492ZM52.5918 77.8525V75.3388C52.069 75.3818 51.5033 75.4427 50.8945 75.5215C50.2858 75.5931 49.8239 75.679 49.5088 75.7793C49.1221 75.901 48.8249 76.08 48.6172 76.3164C48.4167 76.5455 48.3164 76.8499 48.3164 77.2295C48.3164 77.4801 48.3379 77.6842 48.3809 77.8418C48.4238 77.9993 48.5312 78.1497 48.7031 78.2929C48.8678 78.4362 49.0648 78.5436 49.2939 78.6152C49.5231 78.6797 49.8812 78.7119 50.3682 78.7119C50.7549 78.7119 51.1452 78.6331 51.5391 78.4756C51.9401 78.318 52.291 78.1103 52.5918 77.8525ZM52.5918 79.7216C52.3841 79.8792 52.1263 80.069 51.8184 80.291C51.5104 80.513 51.2204 80.6884 50.9482 80.8174C50.5687 80.9892 50.1748 81.1146 49.7666 81.1933C49.3584 81.2793 48.9108 81.3222 48.4238 81.3222C47.278 81.3222 46.3184 80.9677 45.5449 80.2588C44.7715 79.5498 44.3848 78.6438 44.3848 77.541C44.3848 76.6601 44.5817 75.9404 44.9756 75.3818C45.3695 74.8232 45.9281 74.3828 46.6514 74.0605C47.3675 73.7383 48.2555 73.5091 49.3154 73.373C50.3753 73.2369 51.4746 73.1367 52.6133 73.0722V73.0078C52.6133 72.3418 52.3411 71.8834 51.7969 71.6328C51.2526 71.375 50.4505 71.2461 49.3906 71.2461C48.7533 71.2461 48.0729 71.3606 47.3496 71.5898C46.6263 71.8118 46.1071 71.9837 45.792 72.1054H45.4375V69.1943C45.8457 69.0869 46.5081 68.9616 47.4248 68.8183C48.3486 68.6679 49.2725 68.5927 50.1963 68.5927C52.3949 68.5927 53.9811 68.9329 54.9551 69.6133C55.9362 70.2864 56.4268 71.3463 56.4268 72.7929V81H52.5918V79.7216ZM67.6953 80.8925C67.2799 81 66.8395 81.0823 66.374 81.1396C65.9085 81.2041 65.3392 81.2363 64.666 81.2363C63.1621 81.2363 62.0413 80.9319 61.3037 80.3232C60.5732 79.7145 60.208 78.6725 60.208 77.1972V71.5576H58.6182V68.9365H60.208V65.4883H64.0752V68.9365H67.6953V71.5576H64.0752V75.833C64.0752 76.2555 64.0788 76.6243 64.0859 76.9394C64.0931 77.2545 64.1504 77.5374 64.2578 77.7881C64.3581 78.0387 64.5335 78.2392 64.7842 78.3896C65.042 78.5328 65.4144 78.6045 65.9014 78.6045C66.1019 78.6045 66.3633 78.5615 66.6855 78.4756C67.015 78.3896 67.2441 78.3108 67.373 78.2392H67.6953V80.8925ZM76.2998 81.3222C75.2471 81.3222 74.2839 81.1969 73.4102 80.9463C72.5436 80.6956 71.7881 80.3089 71.1436 79.7861C70.5062 79.2633 70.012 78.6045 69.6611 77.8095C69.3102 77.0146 69.1348 76.0836 69.1348 75.0166C69.1348 73.8922 69.321 72.9218 69.6934 72.1054C70.0729 71.289 70.5993 70.6123 71.2725 70.0752C71.9242 69.5667 72.6761 69.1943 73.5283 68.958C74.3805 68.7216 75.265 68.6035 76.1816 68.6035C77.0052 68.6035 77.7643 68.693 78.459 68.872C79.1536 69.0511 79.8018 69.2838 80.4033 69.5703V72.8681H79.8555C79.7051 72.7392 79.5225 72.5888 79.3076 72.417C79.0999 72.2451 78.8421 72.0768 78.5342 71.9121C78.2406 71.7545 77.9183 71.6256 77.5674 71.5254C77.2165 71.4179 76.8083 71.3642 76.3428 71.3642C75.3115 71.3642 74.5166 71.6937 73.958 72.3525C73.4066 73.0042 73.1309 73.8922 73.1309 75.0166C73.1309 76.1767 73.4137 77.0576 73.9795 77.6591C74.5524 78.2607 75.3617 78.5615 76.4072 78.5615C76.8942 78.5615 77.3311 78.5078 77.7178 78.4004C78.1117 78.2858 78.4375 78.1533 78.6953 78.0029C78.9388 77.8597 79.1536 77.7093 79.3398 77.5517C79.526 77.3942 79.6979 77.2402 79.8555 77.0898H80.4033V80.3877C79.7946 80.6741 79.1572 80.8997 78.4912 81.0644C77.8324 81.2363 77.1019 81.3222 76.2998 81.3222ZM95.0879 81H91.1992V75.0166C91.1992 74.5296 91.1742 74.0462 91.124 73.5664C91.0739 73.0794 90.988 72.7213 90.8662 72.4922C90.723 72.2272 90.5117 72.0338 90.2324 71.9121C89.9603 71.7903 89.5771 71.7295 89.083 71.7295C88.7321 71.7295 88.374 71.7868 88.0088 71.9013C87.6507 72.0159 87.2604 72.1985 86.8379 72.4492V81H82.9707V64.2851H86.8379V70.2685C87.5254 69.7314 88.1842 69.3196 88.8145 69.0332C89.4518 68.7467 90.1572 68.6035 90.9307 68.6035C92.234 68.6035 93.251 68.983 93.9814 69.7422C94.7191 70.5013 95.0879 71.6364 95.0879 73.1474V81Z" fill="#08231F"/>
</svg>
