<svg width="116" height="116" viewBox="0 0 116 116" fill="none" xmlns="http://www.w3.org/2000/svg">
<path d="M57.9994 115.437C89.7209 115.437 115.436 89.7214 115.436 57.9999C115.436 26.2783 89.7209 0.562958 57.9994 0.562958C26.2779 0.562958 0.5625 26.2783 0.5625 57.9999C0.5625 89.7214 26.2779 115.437 57.9994 115.437Z" fill="#CCCCCC"/>
<path d="M22.5 93.5C42.1061 113.106 73.8939 113.106 93.5 93.5C113.106 73.8939 113.106 42.1061 93.5 22.5C73.8939 2.89389 42.1061 2.89389 22.5 22.5C2.89385 42.1061 2.89386 73.8939 22.5 93.5Z" fill="#E7E7E7"/>
<path fill-rule="evenodd" clip-rule="evenodd" d="M100.96 60.1101C100.46 70.4144 96.2777 80.5662 88.4161 88.4278C71.6262 105.218 44.3668 105.222 27.5768 88.432C19.7152 80.5704 15.5367 70.4143 15.033 60.1058C23.8386 74.6266 39.7945 84.3339 57.9985 84.3339C76.2024 84.3339 92.1501 74.6267 100.96 60.1101Z" fill="#CCCCCC"/>
<path d="M58.0006 35.055C69.6765 35.055 79.1416 30.5609 79.1416 25.0172C79.1416 19.4735 69.6765 14.9794 58.0006 14.9794C46.3248 14.9794 36.8597 19.4735 36.8597 25.0172C36.8597 30.5609 46.3248 35.055 58.0006 35.055Z" fill="#F8F8F8"/>
<path d="M18.8936 67.3115C17.7048 67.3115 16.6055 67.1361 15.5957 66.7852C14.5931 66.4342 13.7301 65.9115 13.0068 65.2168C12.2835 64.5221 11.7214 63.6556 11.3203 62.6172C10.9264 61.5788 10.7295 60.3792 10.7295 59.0186C10.7295 57.751 10.9193 56.6016 11.2988 55.5703C11.6784 54.5391 12.2298 53.6546 12.9531 52.917C13.6478 52.208 14.5072 51.6602 15.5312 51.2734C16.5625 50.8867 17.6868 50.6934 18.9043 50.6934C19.5775 50.6934 20.1826 50.7327 20.7197 50.8115C21.264 50.8831 21.7653 50.9798 22.2236 51.1016C22.7035 51.2376 23.1367 51.3916 23.5234 51.5635C23.9173 51.7282 24.2611 51.8822 24.5547 52.0254V55.9033H24.082C23.8815 55.7314 23.6273 55.5273 23.3193 55.291C23.0186 55.0547 22.6748 54.8219 22.2881 54.5928C21.8942 54.3636 21.4681 54.1702 21.0098 54.0127C20.5514 53.8551 20.0609 53.7764 19.5381 53.7764C18.958 53.7764 18.4066 53.8695 17.8838 54.0557C17.361 54.2347 16.8776 54.5355 16.4336 54.958C16.0111 55.3662 15.6673 55.9069 15.4023 56.5801C15.1445 57.2533 15.0156 58.0697 15.0156 59.0293C15.0156 60.0319 15.1553 60.8698 15.4346 61.543C15.721 62.2161 16.0791 62.7461 16.5088 63.1328C16.9456 63.5267 17.4326 63.8096 17.9697 63.9814C18.5068 64.1462 19.0368 64.2285 19.5596 64.2285C20.0609 64.2285 20.555 64.1533 21.042 64.0029C21.5361 63.8525 21.9909 63.6484 22.4062 63.3906C22.7572 63.1829 23.083 62.9609 23.3838 62.7246C23.6846 62.4883 23.9316 62.2842 24.125 62.1123H24.5547V65.9365C24.1536 66.1156 23.7705 66.2839 23.4053 66.4414C23.04 66.599 22.6569 66.735 22.2559 66.8496C21.7331 67 21.2425 67.1146 20.7842 67.1934C20.3258 67.2721 19.6956 67.3115 18.8936 67.3115ZM39.7012 60.9736C39.7012 62.9574 39.1211 64.5221 37.9609 65.668C36.8079 66.8066 35.1859 67.376 33.0947 67.376C31.0036 67.376 29.3779 66.8066 28.2178 65.668C27.0648 64.5221 26.4883 62.9574 26.4883 60.9736C26.4883 58.9756 27.0684 57.4072 28.2285 56.2686C29.3958 55.1299 31.0179 54.5605 33.0947 54.5605C35.2002 54.5605 36.8258 55.1335 37.9717 56.2793C39.1247 57.4251 39.7012 58.9899 39.7012 60.9736ZM34.9424 63.9062C35.193 63.5983 35.3792 63.2295 35.501 62.7998C35.6299 62.363 35.6943 61.7614 35.6943 60.9951C35.6943 60.2861 35.6299 59.6917 35.501 59.2119C35.3721 58.7321 35.193 58.349 34.9639 58.0625C34.7347 57.7689 34.459 57.5612 34.1367 57.4395C33.8145 57.3177 33.4671 57.2568 33.0947 57.2568C32.7223 57.2568 32.3893 57.307 32.0957 57.4072C31.8092 57.5075 31.5335 57.708 31.2686 58.0088C31.0322 58.2881 30.8424 58.6712 30.6992 59.1582C30.5632 59.6452 30.4951 60.2575 30.4951 60.9951C30.4951 61.654 30.556 62.2269 30.6777 62.7139C30.7995 63.1937 30.9785 63.5804 31.2148 63.874C31.444 64.1533 31.7161 64.3574 32.0312 64.4863C32.3535 64.6152 32.7188 64.6797 33.127 64.6797C33.4779 64.6797 33.8109 64.6224 34.126 64.5078C34.4482 64.3861 34.7204 64.1855 34.9424 63.9062ZM54.5898 67H50.7012V61.0166C50.7012 60.5296 50.6761 60.0462 50.626 59.5664C50.5758 59.0794 50.4899 58.7214 50.3682 58.4922C50.2249 58.2272 50.0137 58.0339 49.7344 57.9121C49.4622 57.7904 49.0791 57.7295 48.585 57.7295C48.234 57.7295 47.876 57.7868 47.5107 57.9014C47.1527 58.016 46.7624 58.1986 46.3398 58.4492V67H42.4727V54.9365H46.3398V56.2686C47.0273 55.7314 47.6862 55.3197 48.3164 55.0332C48.9538 54.7467 49.6592 54.6035 50.4326 54.6035C51.736 54.6035 52.7529 54.9831 53.4834 55.7422C54.221 56.5013 54.5898 57.6364 54.5898 59.1475V67ZM65.9766 53.1211H65.6865C65.5146 53.071 65.2891 53.0137 65.0098 52.9492C64.7376 52.8848 64.444 52.8525 64.1289 52.8525C63.3698 52.8525 62.8542 52.9886 62.582 53.2607C62.3171 53.5329 62.1846 54.0592 62.1846 54.8398V54.9365H65.1709V57.5576H62.3135V67H58.4463V57.5576H56.792V54.9365H58.4463V54.6035C58.4463 53.1283 58.8366 52.0218 59.6172 51.2842C60.4049 50.5465 61.5938 50.1777 63.1836 50.1777C63.7565 50.1777 64.2757 50.1992 64.7412 50.2422C65.2067 50.278 65.6185 50.3281 65.9766 50.3926V53.1211ZM71.3262 67H67.459V54.9365H71.3262V67ZM71.4336 53.2178H67.3516V50.2852H71.4336V53.2178ZM83.7227 58.6211H83.3789C83.2142 58.5638 82.9492 58.5208 82.584 58.4922C82.2188 58.4635 81.9144 58.4492 81.6709 58.4492C81.1195 58.4492 80.6325 58.485 80.21 58.5566C79.7874 58.6283 79.3327 58.75 78.8457 58.9219V67H74.9785V54.9365H78.8457V56.709C79.6979 55.9785 80.4391 55.4951 81.0693 55.2588C81.6995 55.0153 82.2796 54.8936 82.8096 54.8936C82.9456 54.8936 83.0996 54.8971 83.2715 54.9043C83.4434 54.9115 83.5938 54.9222 83.7227 54.9365V58.6211ZM97.709 58.4492V67H93.8203V60.9736C93.8203 60.3864 93.806 59.8887 93.7773 59.4805C93.7487 59.0651 93.6699 58.7285 93.541 58.4707C93.4121 58.2129 93.2152 58.0267 92.9502 57.9121C92.6924 57.7904 92.3271 57.7295 91.8545 57.7295C91.4749 57.7295 91.1061 57.8083 90.748 57.9658C90.39 58.1162 90.0677 58.2773 89.7812 58.4492V67H85.9141V54.9365H89.7812V56.2686C90.4473 55.7458 91.0846 55.3376 91.6934 55.0439C92.3021 54.7503 92.9753 54.6035 93.7129 54.6035C94.5078 54.6035 95.2096 54.7826 95.8184 55.1406C96.4271 55.4915 96.9033 56.0107 97.2471 56.6982C98.0205 56.0465 98.7725 55.5345 99.5029 55.1621C100.233 54.7897 100.95 54.6035 101.651 54.6035C102.955 54.6035 103.943 54.9938 104.616 55.7744C105.297 56.555 105.637 57.6794 105.637 59.1475V67H101.748V60.9736C101.748 60.3792 101.734 59.8779 101.705 59.4697C101.684 59.0615 101.608 58.7285 101.479 58.4707C101.358 58.2129 101.164 58.0267 100.899 57.9121C100.634 57.7904 100.262 57.7295 99.7822 57.7295C99.46 57.7295 99.1449 57.7868 98.8369 57.9014C98.529 58.0088 98.153 58.1914 97.709 58.4492Z" fill="#08231F"/>
</svg>
