<svg width="116" height="116" viewBox="0 0 116 116" fill="none" xmlns="http://www.w3.org/2000/svg">
<path d="M57.9994 115.437C89.721 115.437 115.436 89.7214 115.436 57.9999C115.436 26.2783 89.721 0.562958 57.9994 0.562958C26.2779 0.562958 0.562531 26.2783 0.562531 57.9999C0.562531 89.7214 26.2779 115.437 57.9994 115.437Z" fill="#CCCCCC"/>
<path d="M58 108.205C85.7272 108.205 108.205 85.7272 108.205 58C108.205 30.2728 85.7272 7.79542 58 7.79542C30.2728 7.79542 7.79542 30.2728 7.79541 58C7.79541 85.7272 30.2728 108.205 58 108.205Z" fill="#E7E7E7"/>
<path fill-rule="evenodd" clip-rule="evenodd" d="M100.96 60.1101C100.46 70.4144 96.2777 80.5662 88.4162 88.4278C71.6262 105.218 44.3668 105.222 27.5768 88.432C19.7153 80.5704 15.5368 70.4143 15.033 60.1058C23.8386 74.6266 39.7945 84.3339 57.9985 84.3339C76.2024 84.3339 92.1501 74.6267 100.96 60.1101Z" fill="#CCCCCC"/>
<path d="M58.0007 35.055C69.6765 35.055 79.1416 30.5609 79.1416 25.0172C79.1416 19.4735 69.6765 14.9794 58.0007 14.9794C46.3249 14.9794 36.8598 19.4735 36.8598 25.0172C36.8598 30.5609 46.3249 35.055 58.0007 35.055Z" fill="#F8F8F8"/>
<path d="M53.2041 34.9727C53.2041 36.5482 52.5345 37.8301 51.1953 38.8184C49.8633 39.7995 48.0514 40.29 45.7598 40.29C44.4349 40.29 43.2783 40.1755 42.29 39.9463C41.3089 39.71 40.3887 39.4128 39.5293 39.0547V35.2197H39.9805C40.8327 35.9001 41.7852 36.4229 42.8379 36.7881C43.8978 37.1533 44.9147 37.3359 45.8887 37.3359C46.1393 37.3359 46.4688 37.3145 46.877 37.2715C47.2852 37.2285 47.6182 37.1569 47.876 37.0566C48.1911 36.9277 48.4489 36.7666 48.6494 36.5732C48.8571 36.3799 48.9609 36.0934 48.9609 35.7139C48.9609 35.363 48.8105 35.0622 48.5098 34.8115C48.2161 34.5537 47.7829 34.3568 47.21 34.2207C46.6084 34.0775 45.971 33.945 45.2979 33.8232C44.6318 33.6943 44.0052 33.5332 43.418 33.3398C42.0716 32.903 41.1012 32.3122 40.5068 31.5674C39.9196 30.8154 39.626 29.8844 39.626 28.7744C39.626 27.2848 40.292 26.071 41.624 25.1328C42.9632 24.1875 44.682 23.7148 46.7803 23.7148C47.833 23.7148 48.8714 23.8187 49.8955 24.0264C50.9268 24.2269 51.8184 24.4811 52.5703 24.7891V28.4736H52.1299C51.4854 27.958 50.694 27.5283 49.7559 27.1846C48.8249 26.8337 47.8724 26.6582 46.8984 26.6582C46.5547 26.6582 46.2109 26.6833 45.8672 26.7334C45.5306 26.7764 45.2048 26.8623 44.8896 26.9912C44.6104 27.0986 44.3704 27.2633 44.1699 27.4854C43.9694 27.7002 43.8691 27.9473 43.8691 28.2266C43.8691 28.6491 44.0303 28.9749 44.3525 29.2041C44.6748 29.4261 45.2835 29.6302 46.1787 29.8164C46.766 29.9382 47.3281 30.0563 47.8652 30.1709C48.4095 30.2855 48.9932 30.443 49.6162 30.6436C50.8408 31.0446 51.7432 31.5924 52.3232 32.2871C52.9105 32.9746 53.2041 33.8698 53.2041 34.9727ZM67.7061 34.6826H58.8545C58.9118 35.6279 59.2699 36.3512 59.9287 36.8525C60.5947 37.3538 61.5723 37.6045 62.8613 37.6045C63.6777 37.6045 64.4691 37.4577 65.2354 37.1641C66.0016 36.8704 66.6068 36.5553 67.0508 36.2188H67.4805V39.3232C66.6068 39.6742 65.7832 39.9284 65.0098 40.0859C64.2363 40.2435 63.3805 40.3223 62.4424 40.3223C60.0218 40.3223 58.167 39.778 56.8779 38.6895C55.5889 37.6009 54.9443 36.0505 54.9443 34.0381C54.9443 32.0472 55.5531 30.4717 56.7705 29.3115C57.9951 28.1442 59.6709 27.5605 61.7979 27.5605C63.7601 27.5605 65.2354 28.0583 66.2236 29.0537C67.2119 30.042 67.7061 31.4671 67.7061 33.3291V34.6826ZM63.8604 32.416C63.8389 31.6068 63.6383 30.998 63.2588 30.5898C62.8792 30.1816 62.2884 29.9775 61.4863 29.9775C60.7415 29.9775 60.1292 30.1709 59.6494 30.5576C59.1696 30.9443 58.901 31.5638 58.8438 32.416H63.8604ZM78.1475 39.8926C77.7321 40 77.2917 40.0824 76.8262 40.1396C76.3607 40.2041 75.7913 40.2363 75.1182 40.2363C73.6143 40.2363 72.4935 39.932 71.7559 39.3232C71.0254 38.7145 70.6602 37.6725 70.6602 36.1973V30.5576H69.0703V27.9365H70.6602V24.4883H74.5273V27.9365H78.1475V30.5576H74.5273V34.833C74.5273 35.2555 74.5309 35.6243 74.5381 35.9395C74.5452 36.2546 74.6025 36.5374 74.71 36.7881C74.8102 37.0387 74.9857 37.2393 75.2363 37.3896C75.4941 37.5329 75.8665 37.6045 76.3535 37.6045C76.554 37.6045 76.8154 37.5615 77.1377 37.4756C77.4671 37.3896 77.6963 37.3109 77.8252 37.2393H78.1475V39.8926ZM38.0684 65.6143C38.0684 66.7458 37.9072 67.6982 37.585 68.4717C37.2627 69.2451 36.8115 69.8503 36.2314 70.2871C35.6514 70.7311 34.9495 71.0498 34.126 71.2432C33.3096 71.4437 32.3857 71.5439 31.3545 71.5439C30.5166 71.5439 29.6895 71.4938 28.873 71.3936C28.0638 71.2933 27.362 71.1715 26.7676 71.0283V68.0098H27.2402C27.7129 68.196 28.2894 68.3643 28.9697 68.5146C29.6501 68.6722 30.2588 68.751 30.7959 68.751C31.512 68.751 32.0921 68.6829 32.5361 68.5469C32.9873 68.418 33.3311 68.2318 33.5674 67.9883C33.7894 67.7591 33.9505 67.4655 34.0508 67.1074C34.151 66.7493 34.2012 66.3197 34.2012 65.8184V65.5928C33.7357 65.9723 33.2201 66.2731 32.6543 66.4951C32.0885 66.7171 31.4583 66.8281 30.7637 66.8281C29.0736 66.8281 27.7702 66.3197 26.8535 65.3027C25.9368 64.2858 25.4785 62.7389 25.4785 60.6621C25.4785 59.6667 25.6182 58.8073 25.8975 58.084C26.1768 57.3607 26.5706 56.7305 27.0791 56.1934C27.5518 55.6921 28.1318 55.3018 28.8193 55.0225C29.514 54.7432 30.223 54.6035 30.9463 54.6035C31.598 54.6035 32.1888 54.6823 32.7188 54.8398C33.2559 54.9902 33.7428 55.2015 34.1797 55.4736L34.3193 54.9365H38.0684V65.6143ZM34.2012 63.1973V57.7295C33.9792 57.6364 33.707 57.5648 33.3848 57.5146C33.0625 57.4574 32.7725 57.4287 32.5146 57.4287C31.4977 57.4287 30.735 57.7223 30.2266 58.3096C29.7181 58.8896 29.4639 59.7025 29.4639 60.748C29.4639 61.9082 29.6787 62.7174 30.1084 63.1758C30.5452 63.6341 31.1898 63.8633 32.042 63.8633C32.4287 63.8633 32.8083 63.8024 33.1807 63.6807C33.5531 63.5589 33.8932 63.3978 34.2012 63.1973ZM49.0254 63.8525V61.3389C48.5026 61.3818 47.9368 61.4427 47.3281 61.5215C46.7194 61.5931 46.2575 61.679 45.9424 61.7793C45.5557 61.901 45.2585 62.0801 45.0508 62.3164C44.8503 62.5456 44.75 62.8499 44.75 63.2295C44.75 63.4801 44.7715 63.6842 44.8145 63.8418C44.8574 63.9993 44.9648 64.1497 45.1367 64.293C45.3014 64.4362 45.4984 64.5436 45.7275 64.6152C45.9567 64.6797 46.3148 64.7119 46.8018 64.7119C47.1885 64.7119 47.5788 64.6331 47.9727 64.4756C48.3737 64.318 48.7246 64.1104 49.0254 63.8525ZM49.0254 65.7217C48.8177 65.8792 48.5599 66.069 48.252 66.291C47.944 66.513 47.654 66.6885 47.3818 66.8174C47.0023 66.9893 46.6084 67.1146 46.2002 67.1934C45.792 67.2793 45.3444 67.3223 44.8574 67.3223C43.7116 67.3223 42.752 66.9678 41.9785 66.2588C41.2051 65.5498 40.8184 64.6439 40.8184 63.541C40.8184 62.6602 41.0153 61.9404 41.4092 61.3818C41.8031 60.8232 42.3617 60.3828 43.085 60.0605C43.8011 59.7383 44.6891 59.5091 45.749 59.373C46.8089 59.237 47.9082 59.1367 49.0469 59.0723V59.0078C49.0469 58.3418 48.7747 57.8835 48.2305 57.6328C47.6862 57.375 46.8841 57.2461 45.8242 57.2461C45.1868 57.2461 44.5065 57.3607 43.7832 57.5898C43.0599 57.8118 42.5407 57.9837 42.2256 58.1055H41.8711V55.1943C42.2793 55.0869 42.9417 54.9616 43.8584 54.8184C44.7822 54.668 45.7061 54.5928 46.6299 54.5928C48.8285 54.5928 50.4147 54.9329 51.3887 55.6133C52.3698 56.2865 52.8604 57.3464 52.8604 58.793V67H49.0254V65.7217ZM68.2109 58.4492V67H64.3223V60.9736C64.3223 60.3864 64.3079 59.8887 64.2793 59.4805C64.2507 59.0651 64.1719 58.7285 64.043 58.4707C63.9141 58.2129 63.7171 58.0267 63.4521 57.9121C63.1943 57.7904 62.8291 57.7295 62.3564 57.7295C61.9769 57.7295 61.6081 57.8083 61.25 57.9658C60.8919 58.1162 60.5697 58.2773 60.2832 58.4492V67H56.416V54.9365H60.2832V56.2686C60.9492 55.7458 61.5866 55.3376 62.1953 55.0439C62.804 54.7503 63.4772 54.6035 64.2148 54.6035C65.0098 54.6035 65.7116 54.7826 66.3203 55.1406C66.929 55.4915 67.4053 56.0107 67.749 56.6982C68.5225 56.0465 69.2744 55.5345 70.0049 55.1621C70.7354 54.7897 71.4515 54.6035 72.1533 54.6035C73.4567 54.6035 74.445 54.9938 75.1182 55.7744C75.7985 56.555 76.1387 57.6794 76.1387 59.1475V67H72.25V60.9736C72.25 60.3792 72.2357 59.8779 72.207 59.4697C72.1855 59.0615 72.1104 58.7285 71.9814 58.4707C71.8597 58.2129 71.6663 58.0267 71.4014 57.9121C71.1364 57.7904 70.764 57.7295 70.2842 57.7295C69.9619 57.7295 69.6468 57.7868 69.3389 57.9014C69.0309 58.0088 68.6549 58.1914 68.2109 58.4492ZM91.5859 61.6826H82.7344C82.7917 62.6279 83.1497 63.3512 83.8086 63.8525C84.4746 64.3538 85.4521 64.6045 86.7412 64.6045C87.5576 64.6045 88.349 64.4577 89.1152 64.1641C89.8815 63.8704 90.4867 63.5553 90.9307 63.2188H91.3604V66.3232C90.4867 66.6742 89.6631 66.9284 88.8896 67.0859C88.1162 67.2435 87.2604 67.3223 86.3223 67.3223C83.9017 67.3223 82.0469 66.778 80.7578 65.6895C79.4688 64.6009 78.8242 63.0505 78.8242 61.0381C78.8242 59.0472 79.4329 57.4717 80.6504 56.3115C81.875 55.1442 83.5508 54.5605 85.6777 54.5605C87.64 54.5605 89.1152 55.0583 90.1035 56.0537C91.0918 57.042 91.5859 58.4671 91.5859 60.3291V61.6826ZM87.7402 59.416C87.7188 58.6068 87.5182 57.998 87.1387 57.5898C86.7591 57.1816 86.1683 56.9775 85.3662 56.9775C84.6214 56.9775 84.0091 57.1709 83.5293 57.5576C83.0495 57.9443 82.7809 58.5638 82.7236 59.416H87.7402ZM38.165 85.6211H37.8213C37.6566 85.5638 37.3916 85.5208 37.0264 85.4922C36.6611 85.4635 36.3568 85.4492 36.1133 85.4492C35.5618 85.4492 35.0749 85.485 34.6523 85.5566C34.2298 85.6283 33.7751 85.75 33.2881 85.9219V94H29.4209V81.9365H33.2881V83.709C34.1403 82.9785 34.8815 82.4951 35.5117 82.2588C36.1419 82.0153 36.722 81.8936 37.252 81.8936C37.388 81.8936 37.542 81.8971 37.7139 81.9043C37.8857 81.9115 38.0361 81.9222 38.165 81.9365V85.6211ZM52.377 94H48.5098V92.668C47.7936 93.2122 47.1383 93.6276 46.5439 93.9141C45.9495 94.1934 45.2406 94.333 44.417 94.333C43.085 94.333 42.0573 93.9499 41.334 93.1836C40.6178 92.4173 40.2598 91.2858 40.2598 89.7891V81.9365H44.1484V87.9199C44.1484 88.5286 44.1663 89.0371 44.2021 89.4453C44.2451 89.8464 44.3382 90.1794 44.4814 90.4443C44.6175 90.7093 44.8216 90.9027 45.0938 91.0244C45.373 91.1462 45.7598 91.207 46.2539 91.207C46.5833 91.207 46.9486 91.1462 47.3496 91.0244C47.7507 90.9027 48.1374 90.7236 48.5098 90.4873V81.9365H52.377V94ZM59.9072 94H56.04V77.2852H59.9072V94ZM75.4404 88.6826H66.5889C66.6462 89.6279 67.0042 90.3512 67.6631 90.8525C68.3291 91.3538 69.3066 91.6045 70.5957 91.6045C71.4121 91.6045 72.2035 91.4577 72.9697 91.1641C73.736 90.8704 74.3411 90.5553 74.7852 90.2188H75.2148V93.3232C74.3411 93.6742 73.5176 93.9284 72.7441 94.0859C71.9707 94.2435 71.1149 94.3223 70.1768 94.3223C67.7562 94.3223 65.9014 93.778 64.6123 92.6895C63.3232 91.6009 62.6787 90.0505 62.6787 88.0381C62.6787 86.0472 63.2874 84.4717 64.5049 83.3115C65.7295 82.1442 67.4053 81.5605 69.5322 81.5605C71.4945 81.5605 72.9697 82.0583 73.958 83.0537C74.9463 84.042 75.4404 85.4671 75.4404 87.3291V88.6826ZM71.5947 86.416C71.5732 85.6068 71.3727 84.998 70.9932 84.5898C70.6136 84.1816 70.0228 83.9775 69.2207 83.9775C68.4759 83.9775 67.8636 84.1709 67.3838 84.5576C66.904 84.9443 66.6354 85.5638 66.5781 86.416H71.5947ZM88.6533 90.1758C88.6533 91.4219 88.0947 92.4281 86.9775 93.1943C85.8604 93.9535 84.3314 94.333 82.3906 94.333C81.3164 94.333 80.3424 94.2327 79.4688 94.0322C78.5951 93.8317 77.8932 93.6097 77.3633 93.3662V90.1865H77.7178C77.9111 90.3226 78.1331 90.473 78.3838 90.6377C78.6416 90.7952 79.0033 90.9671 79.4688 91.1533C79.8698 91.318 80.3245 91.4613 80.833 91.583C81.3415 91.6976 81.8857 91.7549 82.4658 91.7549C83.2249 91.7549 83.7871 91.6725 84.1523 91.5078C84.5176 91.3359 84.7002 91.0853 84.7002 90.7559C84.7002 90.4622 84.5928 90.251 84.3779 90.1221C84.1631 89.986 83.7549 89.8571 83.1533 89.7354C82.8669 89.6709 82.4766 89.6029 81.9824 89.5312C81.4954 89.4525 81.0514 89.3594 80.6504 89.252C79.5547 88.9655 78.7419 88.5215 78.2119 87.9199C77.682 87.3112 77.417 86.5557 77.417 85.6533C77.417 84.4932 77.9648 83.5299 79.0605 82.7637C80.1634 81.9902 81.6673 81.6035 83.5723 81.6035C84.4746 81.6035 85.3376 81.6966 86.1611 81.8828C86.9919 82.0618 87.64 82.2552 88.1055 82.4629V85.5137H87.7725C87.1995 85.1198 86.5443 84.8011 85.8066 84.5576C85.0762 84.307 84.335 84.1816 83.583 84.1816C82.96 84.1816 82.4336 84.2676 82.0039 84.4395C81.5814 84.6113 81.3701 84.8548 81.3701 85.1699C81.3701 85.4564 81.4668 85.6748 81.6602 85.8252C81.8535 85.9756 82.3083 86.126 83.0244 86.2764C83.4183 86.3551 83.8408 86.4339 84.292 86.5127C84.7503 86.5843 85.2087 86.6774 85.667 86.792C86.6839 87.057 87.4359 87.4759 87.9229 88.0488C88.4098 88.6146 88.6533 89.3236 88.6533 90.1758Z" fill="#08231F"/>
</svg>
